ffmpeg version 2.8.10-0ubuntu0.16.04.1 Copyright (c) 2000-2016 the FFmpeg developers
  built with gcc 5.4.0 (Ubuntu 5.4.0-6ubuntu1~16.04.4) 20160609
  configuration: --prefix=/usr --extra-version=0ubuntu0.16.04.1 --build-suffix=-ffmpeg --toolchain=hardened --libdir=/usr/lib/x86_64-linux-gnu --incdir=/usr/include/x86_64-linux-gnu --cc=cc --cxx=g++ --enable-gpl --enable-shared --disable-stripping --disable-decoder=libopenjpeg --disable-decoder=libschroedinger --enable-avresample --enable-avisynth --enable-gnutls --enable-ladspa --enable-libass --enable-libbluray --enable-libbs2b --enable-libcaca --enable-libcdio --enable-libflite --enable-libfontconfig --enable-libfreetype --enable-libfribidi --enable-libgme --enable-libgsm --enable-libmodplug --enable-libmp3lame --enable-libopenjpeg --enable-libopus --enable-libpulse --enable-librtmp --enable-libschroedinger --enable-libshine --enable-libsnappy --enable-libsoxr --enable-libspeex --enable-libssh --enable-libtheora --enable-libtwolame --enable-libvorbis --enable-libvpx --enable-libwavpack --enable-libwebp --enable-libx265 --enable-libxvid --enable-libzvbi --enable-openal --enable-opengl --enable-x11grab --enable-libdc1394 --enable-libiec61883 --enable-libzmq --enable-frei0r --enable-libx264 --enable-libopencv
  libavutil      54. 31.100 / 54. 31.100
  libavcodec     56. 60.100 / 56. 60.100
  libavformat    56. 40.101 / 56. 40.101
  libavdevice    56.  4.100 / 56.  4.100
  libavfilter     5. 40.101 /  5. 40.101
  libavresample   2.  1.  0 /  2.  1.  0
  libswscale      3.  1.101 /  3.  1.101
  libswresample   1.  2.101 /  1.  2.101
  libpostproc    53.  3.100 / 53.  3.100
[video4linux2,v4l2 @ 0x1ae5420] The driver changed the time per frame from 1/20 to 1/30
Input #0, video4linux2,v4l2, from '/dev/video0':
  Duration: N/A, start: 11880.702228, bitrate: 9216 kb/s
    Stream #0:0: Video: rawvideo (YUY2 / 0x32595559), yuyv422, 160x120, 9216 kb/s, 30 fps, 30 tbr, 1000k tbn, 1000k tbc
No pixel format specified, yuv422p for MPEG-2 encoding chosen.
Use -pix_fmt yuv420p for compatibility with outdated media players.
Output #0, mpegts, to 'pipe:':
  Metadata:
    encoder         : Lavf56.40.101
    Stream #0:0: Video: mpeg2video, yuv422p, 160x120, q=2-31, 200 kb/s, 30 fps, 90k tbn, 30 tbc
    Metadata:
      encoder         : Lavc56.60.100 mpeg2video
Stream mapping:
  Stream #0:0 -> #0:0 (rawvideo (native) -> mpeg2video (native))
Press [q] to stop, [?] for help
frame=   16 fps=0.0 q=3.6 size=      39kB time=00:00:00.63 bitrate= 505.8kbits/s    frame=   30 fps= 30 q=3.4 size=      61kB time=00:00:01.10 bitrate= 453.9kbits/s    frame=   45 fps= 30 q=3.5 size=      82kB time=00:00:01.60 bitrate= 419.2kbits/s    frame=   60 fps= 30 q=4.3 size=     103kB time=00:00:02.10 bitrate= 401.1kbits/s    frame=   75 fps= 30 q=4.7 size=     128kB time=00:00:02.60 bitrate= 402.6kbits/s    frame=   90 fps= 30 q=6.2 size=     149kB time=00:00:03.10 bitrate= 394.4kbits/s    frame=  105 fps= 30 q=6.2 size=     169kB time=00:00:03.60 bitrate= 385.2kbits/s    frame=  120 fps= 30 q=6.8 size=     188kB time=00:00:04.10 bitrate= 376.0kbits/s    frame=  135 fps= 30 q=5.5 size=     210kB time=00:00:04.63 bitrate= 370.7kbits/s    frame=  143 fps= 30 q=4.6 Lsize=     217kB time=00:00:04.93 bitrate= 359.7kbits/s    
video:182kB audio:0kB subtitle:0kB other streams:0kB global headers:0kB muxing overhead: 18.731970%
Exiting normally, received signal 2.
